<?xml version="1.0" encoding="utf-8"?>
<!-- Generator: Adobe Illustrator 24.1.2, SVG Export Plug-In . SVG Version: 6.00 Build 0)  -->
<svg version="1.2" baseProfile="tiny" id="Layer_1" xmlns="http://www.w3.org/2000/svg" xmlns:xlink="http://www.w3.org/1999/xlink"
	 x="0px" y="0px" viewBox="0 0 141.7 141.7" overflow="visible" xml:space="preserve">
<g>
	<path fill="#FFAA00" d="M70.9,64.8l-4.5-13c-4.1-12-6-7.6-6-6.1c0,3.8,4.5,15.5,5.9,19.3C67.3,64.4,68.9,64.6,70.9,64.8z"/>
	<path fill="#FFAA00" d="M88.6,47.1c0-0.9-0.3-2.1-1.4-2.1c-2.1,0-4.3,6.7-4.8,8.3l-4.3,12.1l4.4,0.8C83.6,63.3,88.6,49.6,88.6,47.1
		z"/>
	<path fill="#FFAA00" d="M70.1,68.8c-2.2,0-2.3,0.8-2.3,1.7c0,5.7,12,5.1,15.6,5.1c1.5,0,2,1.3,2.2,2.7c-1,1-2.3,1.5-3.6,2
		c-1.2,0.4-2.5,0.9-3.5,1.7c-2.9,2.1-5.7,5.6-5.7,9.3c0,2.3,1.4,4.3,1.4,6.5c0,0-0.3,0.8-0.3,1c-4.2-0.3-5.3-4.5-5.4-8
		c-0.4,0.1-1,0.1-1.5,0.1c0.7,2.3-1.5,5.4-4.9,5.4c-4.9,0-11.4-7.4-7.6-11.3c3.7,4.7,4.5,6.7,6.6,6.7c0.5,0,1.5-0.4,1.5-1.1
		c0-1.7-5.6-9.5-7-9.5c-2.2,0-4.9,3.2-2.7,8.8c2.9,7.2,9,11.4,16.7,11.4c5.6,0,10.4-2.2,14.2-6.3v0c7.2-8,6.4-20.6,4-22.6
		C84.9,69.8,74.3,68.8,70.1,68.8z"/>
	<path fill="#FFAA00" d="M67.4,86.4c0.7,0,1.4-0.8,1.4-1.5c0-1.7-4.9-13.9-8.7-13.9c-1,0-2.6,1.7-2.6,2.7
		C57.5,76.5,64.7,86.4,67.4,86.4z"/>
	<path fill="#FFAA00" d="M35.6-0.3C16-0.3,0.1,15.6,0.1,35.2v106.3h106.3c19.6,0,35.4-15.9,35.4-35.4V-0.3H35.6z M69.3,105.8
		c-12.5,0-21.3-9.9-21.3-19.3c0-4.8,1.8-8,6.6-9.3c-0.4-1.1-1-2.7-1-3.8c0-3,3.2-6.8,6.3-6.8c0.9,0,1.8,0.3,2.6,0.6
		c-1.6-4.6-6-16.4-6-21c0-3.7,1.9-6.7,5.9-6.7c5.2,0,11.1,18.7,12.3,22.4c1.6-4.1,6.8-21.1,12.6-21.1c3.6,0,5.7,2.9,5.7,6.3
		c0,3.9-4.4,16.1-5.9,20.4c6.2,1.5,7.1,6.6,7.1,12.1C94.1,94.3,84.5,105.8,69.3,105.8z"/>
	<path fill="#FFAA00" d="M75.1,79.6c-1.3-0.3-2.6-0.4-3.8-0.8c0.4,1.1,0.9,2.2,1.2,3.3C73.2,81.2,74.1,80.3,75.1,79.6z"/>
</g>
</svg>
