<?xml version="1.0" encoding="utf-8"?>
<!-- Generator: Adobe Illustrator 24.1.2, SVG Export Plug-In . SVG Version: 6.00 Build 0)  -->
<svg version="1.2" baseProfile="tiny" id="Layer_1" xmlns="http://www.w3.org/2000/svg" xmlns:xlink="http://www.w3.org/1999/xlink"
	 x="0px" y="0px" viewBox="0 0 141.7 141.7" overflow="visible" xml:space="preserve">
<g>
	<path fill="#FFAA00" d="M97.4,48.5H44.6c-0.8,0-1.4,0.6-1.4,1.4v27.9c0,0.8,0.6,1.4,1.4,1.4h52.8c0.8,0,1.4-0.6,1.4-1.4V49.9
		C98.8,49.2,98.1,48.5,97.4,48.5z"/>
	<path fill="#FFAA00" d="M35.6-0.3C16-0.3,0.1,15.6,0.1,35.2v106.3h106.3c19.6,0,35.4-15.9,35.4-35.4V-0.3H35.6z M103,85.8
		c0,3-2.5,5.5-5.5,5.5h-20l3.9,6.7c0.5,0.9-0.1,2-1.1,2H61.8c-1,0-1.7-1.1-1.1-2l3.9-6.7h-20c-3,0-5.5-2.5-5.5-5.5v-36
		c0-3,2.5-5.5,5.5-5.5h52.9c3,0,5.5,2.5,5.5,5.5V85.8z"/>
</g>
</svg>
